<svg width="159" height="46" viewBox="0 0 159 46" fill="none" xmlns="http://www.w3.org/2000/svg"><path fill-rule="evenodd" clip-rule="evenodd" d="M153.112 45.814H5.89c-3.24 0-5.89-2.578-5.89-5.729V5.728C0 2.578 2.65 0 5.89 0h147.222C156.349 0 159 2.578 159 5.728v34.357c0 3.151-2.651 5.729-5.888 5.729z" fill="#010202"/><path fill-rule="evenodd" clip-rule="evenodd" d="M56.435 12.19c0 .997-.298 1.793-.888 2.384-.673.706-1.547 1.056-2.625 1.056-1.029 0-1.907-.355-2.627-1.07-.722-.715-1.08-1.603-1.08-2.66 0-1.057.358-1.942 1.08-2.657.72-.715 1.598-1.071 2.627-1.071.513 0 1.003.101 1.468.298.463.201.836.466 1.117.799l-.628.628c-.473-.565-1.125-.847-1.957-.847-.75 0-1.402.263-1.947.793-.549.529-.825 1.216-.825 2.057 0 .844.276 1.53.825 2.06.545.53 1.197.792 1.947.792.799 0 1.465-.265 1.997-.797.344-.346.543-.827.597-1.445h-2.594v-.856h3.464c.03.186.049.363.049.536z" fill="#FEFEFE"/><path fill-rule="evenodd" clip-rule="evenodd" d="M56.434 12.19h-.12c-.002.975-.286 1.732-.853 2.3l-.002.001c-.649.68-1.486 1.019-2.539 1.019-1.002 0-1.841-.341-2.542-1.035-.7-.696-1.045-1.545-1.045-2.575 0-1.03.345-1.877 1.045-2.573.701-.694 1.54-1.037 2.542-1.037.498 0 .971.097 1.419.289.452.195.808.448 1.073.766l.094-.077-.087-.084-.626.628.085.084.089-.077c-.492-.593-1.188-.891-2.047-.889-.777-.002-1.464.277-2.03.825-.573.551-.86 1.275-.858 2.145-.002.871.285 1.595.858 2.146.566.549 1.253.827 2.03.827.826 0 1.527-.278 2.082-.833.368-.371.578-.882.633-1.52l.009-.13H53.04v-.62h3.345v-.116l-.12.018c.03.181.049.352.049.518h.239c0-.18-.019-.368-.053-.56l-.017-.096h-3.682v1.094h2.714v-.119l-.117-.009c-.054.597-.246 1.05-.568 1.37-.508.511-1.138.762-1.91.764-.723-.002-1.335-.25-1.867-.759-.525-.508-.785-1.155-.785-1.975 0-.818.26-1.465.785-1.974.532-.508 1.144-.759 1.867-.759.81.003 1.414.27 1.866.806l.082.099.722-.72.077-.077-.07-.085c-.293-.349-.684-.623-1.165-.829-.478-.206-.982-.309-1.512-.309-1.056-.002-1.97.37-2.708 1.108-.745.734-1.12 1.657-1.12 2.74 0 1.085.375 2.008 1.12 2.744.738.736 1.652 1.108 2.708 1.106 1.105.002 2.016-.366 2.712-1.095l-.087-.082.085.085c.616-.617.923-1.448.923-2.468h-.119z" fill="#FEFEFE"/><path fill-rule="evenodd" clip-rule="evenodd" d="M61.917 9.207h-3.253v2.264h2.932v.858h-2.932v2.266h3.253v.876H57.75v-7.14h4.167v.876z" fill="#FEFEFE"/><path fill-rule="evenodd" clip-rule="evenodd" d="M61.917 9.207v-.12h-3.37v2.503h2.932v.619h-2.932v2.505h3.25v.637h-3.93V8.45h3.93v.757h.12v-.12.12h.119V8.21H57.63v7.38h4.406v-1.115h-3.252v-2.027h2.931v-1.095h-2.931V9.326h3.252v-.119h-.119z" fill="#FEFEFE"/><path fill-rule="evenodd" clip-rule="evenodd" d="M65.788 15.471h-.921V9.207h-1.992v-.876h4.907v.876h-1.994v6.264z" fill="#FEFEFE"/><path fill-rule="evenodd" clip-rule="evenodd" d="M65.786 15.47v-.119h-.801V9.087h-1.992V8.45h4.67v.637h-1.996v6.383h.119v-.119.119h.12V9.326h1.992V8.21h-5.144v1.116h1.996v6.264h1.156v-.12h-.12z" fill="#FEFEFE"/><path fill-rule="evenodd" clip-rule="evenodd" d="M71.332 15.472h.918v-7.14h-.918v7.14z" fill="#FEFEFE"/><path fill-rule="evenodd" clip-rule="evenodd" d="M71.333 15.47h.119V8.45h.678v6.901h-.797v.119h.119-.119v.12h1.035V8.21h-1.155v7.38h.12v-.12z" fill="#FEFEFE"/><path fill-rule="evenodd" clip-rule="evenodd" d="M76.32 15.471h-.92V9.207h-1.994v-.876h4.907v.876H76.32v6.264z" fill="#FEFEFE"/><path fill-rule="evenodd" clip-rule="evenodd" d="M76.32 15.47v-.119h-.8V9.087h-1.994V8.45h4.668v.637H76.2v6.383h.12v-.119.119h.119V9.326h1.991V8.21h-5.143v1.116h1.997v6.264h1.155v-.12h-.119z" fill="#FEFEFE"/><path fill-rule="evenodd" clip-rule="evenodd" d="M83.042 13.95c.529.537 1.176.801 1.94.801s1.413-.264 1.938-.801c.532-.537.797-1.219.797-2.05 0-.83-.265-1.514-.797-2.049-.525-.536-1.174-.801-1.938-.801s-1.411.265-1.94.801c-.528.535-.792 1.219-.792 2.049 0 .831.264 1.513.792 2.05zm4.558.597c-.701.723-1.578 1.083-2.618 1.083-1.045 0-1.915-.36-2.618-1.083-.7-.719-1.05-1.603-1.05-2.647 0-1.044.35-1.927 1.05-2.646.703-.724 1.573-1.084 2.618-1.084 1.038 0 1.91.362 2.61 1.088.706.724 1.06 1.606 1.06 2.642 0 1.044-.352 1.928-1.052 2.647z" fill="#FEFEFE"/><path fill-rule="evenodd" clip-rule="evenodd" d="M83.042 13.95l-.084.085c.548.555 1.23.839 2.024.839.792 0 1.477-.284 2.025-.839.551-.558.83-1.277.83-2.135 0-.855-.279-1.575-.83-2.133-.548-.555-1.233-.838-2.025-.837-.794-.001-1.476.282-2.024.837-.551.558-.828 1.278-.828 2.133 0 .858.277 1.577.828 2.135l.171-.169c-.506-.511-.759-1.16-.759-1.966 0-.804.253-1.453.759-1.964h-.003c.511-.516 1.12-.766 1.856-.768.738.002 1.348.252 1.856.768.504.514.755 1.16.759 1.964-.004.806-.255 1.453-.759 1.966-.508.516-1.118.769-1.856.769-.736-.003-1.345-.253-1.856-.769l-.084.084zm4.558.598l-.084-.082c-.682.7-1.516 1.044-2.534 1.044-1.017 0-1.851-.344-2.531-1.044l-.004-.005.004.005c-.681-.701-1.019-1.547-1.019-2.566 0-1.017.338-1.863 1.019-2.564.68-.701 1.514-1.046 2.531-1.046 1.01 0 1.842.348 2.528 1.05.683.704 1.022 1.55 1.022 2.56 0 1.019-.337 1.865-1.016 2.566l.168.166c.724-.74 1.088-1.662 1.086-2.732.002-1.064-.364-1.98-1.09-2.726-.722-.744-1.634-1.124-2.698-1.122C83.909 8.05 83 8.427 82.28 9.17c-.724.742-1.087 1.661-1.085 2.73-.002 1.07.361 1.992 1.085 2.732l.005.002-.005-.002c.72.743 1.629 1.12 2.702 1.118 1.068.002 1.983-.375 2.702-1.118l-.084-.084z" fill="#FEFEFE"/><path fill-rule="evenodd" clip-rule="evenodd" d="M89.94 15.471v-7.14h1.12l3.468 5.554h.04l-.04-1.375V8.331h.919v7.14h-.961l-3.628-5.823h-.042l.042 1.378v4.445h-.918z" fill="#FEFEFE"/><path fill-rule="evenodd" clip-rule="evenodd" d="M89.94 15.47h.12V8.45h.93l3.47 5.556h.228l-.04-1.5V8.45h.679v6.901h-.771l-3.634-5.823h-.225l.042 1.497v4.326h-.799v.119h.12-.12v.12h1.036v-4.57l-.04-1.375-.12.002v.118h.042v-.118l-.1.063 3.665 5.88h1.141V8.21h-1.155v4.301l.039 1.378.12-.005v-.117h-.04v.117l.101-.061-3.506-5.613H89.82v7.38h.12v-.12z" fill="#FEFEFE"/><path fill-rule="evenodd" clip-rule="evenodd" d="M127.263 35.703h2.22V20.825h-2.22v14.878zm20.001-9.518l-2.545 6.451h-.077l-2.641-6.451h-2.395l3.965 9.015-2.261 5.015h2.317l6.107-14.03h-2.47zm-12.593 7.828c-.731 0-1.741-.363-1.741-1.263 0-1.148 1.263-1.589 2.352-1.589.978 0 1.437.211 2.03.497-.174 1.378-1.359 2.355-2.641 2.355zm.267-8.153c-1.608 0-3.271.709-3.96 2.276l1.968.823c.422-.823 1.205-1.092 2.03-1.092 1.148 0 2.315.691 2.336 1.917v.152c-.403-.23-1.263-.574-2.318-.574-2.125 0-4.286 1.167-4.286 3.348 0 1.993 1.741 3.274 3.696 3.274 1.49 0 2.315-.67 2.833-1.454h.075v1.147h2.144v-5.703c0-2.641-1.973-4.114-4.518-4.114zm-13.723 2.135h-3.159v-5.099h3.159c1.659 0 2.601 1.374 2.601 2.55 0 1.153-.942 2.549-2.601 2.549zm-.059-7.17h-5.319v14.878h2.219v-5.638h3.1c2.463 0 4.879-1.781 4.879-4.619 0-2.84-2.416-4.621-4.879-4.621zM92.14 34.016c-1.532 0-2.816-1.284-2.816-3.049 0-1.783 1.284-3.087 2.816-3.087 1.517 0 2.705 1.304 2.705 3.087 0 1.765-1.188 3.049-2.705 3.049zm2.55-6.998h-.075c-.499-.595-1.455-1.132-2.665-1.132-2.53 0-4.85 2.224-4.85 5.08 0 2.838 2.32 5.044 4.85 5.044 1.21 0 2.166-.537 2.665-1.151h.075v.726c0 1.938-1.033 2.975-2.702 2.975-1.361 0-2.205-.98-2.549-1.803l-1.936.806c.553 1.341 2.032 2.99 4.485 2.99 2.608 0 4.814-1.535 4.814-5.273v-9.087H94.69v.825zm3.646 8.685h2.224V20.825h-2.224v14.878zm5.503-4.909c-.061-1.954 1.514-2.95 2.643-2.95.884 0 1.631.438 1.877 1.073l-4.52 1.877zm6.901-1.688c-.422-1.13-1.708-3.22-4.335-3.22-2.606 0-4.774 2.05-4.774 5.062 0 2.835 2.147 5.062 5.025 5.062 2.319 0 3.662-1.418 4.218-2.243l-1.727-1.153c-.572.846-1.36 1.401-2.491 1.401-1.132 0-1.936-.518-2.456-1.532l6.77-2.801-.23-.576zM56.818 27.44v2.147h5.139c-.154 1.207-.555 2.09-1.169 2.704-.748.748-1.919 1.57-3.97 1.57-3.163 0-5.636-2.55-5.636-5.711 0-3.166 2.473-5.715 5.636-5.715 1.709 0 2.955.672 3.874 1.535l1.516-1.517c-1.286-1.225-2.99-2.165-5.39-2.165-4.333 0-7.974 3.527-7.974 7.862 0 4.333 3.641 7.86 7.974 7.86 2.339 0 4.104-.766 5.484-2.205 1.418-1.42 1.861-3.412 1.861-5.025 0-.499-.04-.958-.115-1.34h-7.23zm13.187 6.576c-1.533 0-2.859-1.266-2.859-3.068 0-1.82 1.326-3.068 2.859-3.068 1.532 0 2.856 1.248 2.856 3.068 0 1.802-1.324 3.068-2.856 3.068zm0-8.13c-2.801 0-5.083 2.128-5.083 5.062 0 2.912 2.282 5.062 5.083 5.062 2.798 0 5.08-2.15 5.08-5.062 0-2.934-2.282-5.062-5.08-5.062zm11.084 8.13c-1.535 0-2.859-1.266-2.859-3.068 0-1.82 1.324-3.068 2.859-3.068 1.533 0 2.851 1.248 2.851 3.068 0 1.802-1.318 3.068-2.851 3.068zm0-8.13c-2.8 0-5.081 2.128-5.081 5.062 0 2.912 2.281 5.062 5.081 5.062 2.798 0 5.078-2.15 5.078-5.062 0-2.934-2.28-5.062-5.078-5.062z" fill="#FEFEFE"/><path fill-rule="evenodd" clip-rule="evenodd" d="M12.421 8.982c-.346.366-.548.933-.548 1.671V36.95c0 .739.202 1.306.548 1.672l.087.086 14.733-14.733v-.347L12.508 8.896l-.087.086z" fill="#5AC8F2"/><path fill-rule="evenodd" clip-rule="evenodd" d="M27.242 23.628v.349l4.91 4.912.11-.066 5.821-3.304c1.661-.947 1.661-2.489 0-3.436l-5.929-3.367-4.912 4.912z" fill="url(#paint0_linear_1816_118279)"/><path fill-rule="evenodd" clip-rule="evenodd" d="M12.422 38.62c.546.58 1.453.651 2.472.074l17.367-9.872-5.019-5.022-14.82 14.82z" fill="url(#paint1_linear_1816_118279)"/><path fill-rule="evenodd" clip-rule="evenodd" d="M12.422 8.983L27.242 23.8l5.019-5.021-17.367-9.871c-.476-.269-.93-.398-1.334-.398-.456 0-.847.164-1.138.473z" fill="url(#paint2_linear_1816_118279)"/><defs><linearGradient id="paint0_linear_1816_118279" x1="39.329" y1="18.716" x2="27.242" y2="18.716" gradientUnits="userSpaceOnUse"><stop stop-color="#FAD961"/><stop offset="1" stop-color="#F99B1B"/></linearGradient><linearGradient id="paint1_linear_1816_118279" x1="10.888" y1="15.007" x2="-8.058" y2="46.891" gradientUnits="userSpaceOnUse"><stop stop-color="#EE4547"/><stop offset="1" stop-color="#C71A6D"/></linearGradient><linearGradient id="paint2_linear_1816_118279" x1="-13.076" y1="3.497" x2="2.389" y2="29.531" gradientUnits="userSpaceOnUse"><stop stop-color="#73C169"/><stop offset="1" stop-color="#289E6F"/></linearGradient></defs></svg>