<svg width="159" height="46" viewBox="0 0 159 46" fill="none" xmlns="http://www.w3.org/2000/svg"><path fill-rule="evenodd" clip-rule="evenodd" d="M159 41.053c0 2.528-2.046 4.574-4.578 4.574H4.586C2.055 45.627 0 43.581 0 41.053V4.578C0 2.053 2.055 0 4.586 0h149.836C156.954 0 159 2.053 159 4.578v36.475z" fill="#000"/><path fill-rule="evenodd" clip-rule="evenodd" d="M34.916 22.562c-.036-3.849 3.151-5.721 3.297-5.808-1.803-2.631-4.603-2.991-5.585-3.019-2.349-.245-4.626 1.405-5.823 1.405-1.222 0-3.064-1.38-5.048-1.34-2.557.04-4.948 1.52-6.26 3.815-2.704 4.686-.687 11.569 1.907 15.358 1.296 1.855 2.81 3.927 4.795 3.852 1.94-.08 2.666-1.237 5.008-1.237 2.319 0 2.999 1.237 5.021 1.19 2.084-.033 3.396-1.863 4.647-3.735 1.5-2.123 2.102-4.218 2.123-4.327-.047-.016-4.042-1.54-4.082-6.154z" fill="#FEFEFE"/><path fill-rule="evenodd" clip-rule="evenodd" d="M31.096 11.244c1.042-1.305 1.757-3.08 1.559-4.882-1.51.066-3.4 1.044-4.487 2.321-.962 1.127-1.825 2.97-1.601 4.703 1.698.127 3.438-.856 4.529-2.142z" fill="#FEFEFE"/><path fill-rule="evenodd" clip-rule="evenodd" d="M58.357 29.931l-1.343-4.148c-.143-.423-.411-1.423-.804-2.993h-.047c-.157.675-.407 1.674-.755 2.993l-1.318 4.148h4.267zm4.645 6.627H60.29l-1.486-4.668H53.64l-1.413 4.668h-2.641L54.7 20.669h3.161l5.141 15.889z" fill="#FEFEFE"/><path fill-rule="evenodd" clip-rule="evenodd" d="M73.563 30.782c0-1.114-.249-2.034-.753-2.758-.552-.754-1.29-1.131-2.217-1.131-.628 0-1.197.209-1.709.623-.511.418-.847.964-1.002 1.641-.078.313-.12.574-.12.776v1.91c0 .835.258 1.537.766 2.112.513.573 1.176.86 1.995.86.957 0 1.707-.369 2.238-1.107.536-.738.802-1.715.802-2.926zm2.597-.094c0 1.95-.53 3.49-1.581 4.623-.945 1.007-2.116 1.508-3.513 1.508-1.51 0-2.596-.541-3.255-1.628h-.049v6.037h-2.544V28.873c0-1.225-.033-2.481-.097-3.773h2.241l.141 1.816h.047c.851-1.368 2.14-2.053 3.868-2.053 1.352 0 2.482.537 3.382 1.604.905 1.07 1.36 2.479 1.36 4.221z" fill="#FEFEFE"/><path fill-rule="evenodd" clip-rule="evenodd" d="M86.745 30.782c0-1.114-.252-2.034-.755-2.758-.553-.754-1.289-1.131-2.218-1.131-.627 0-1.196.209-1.709.623-.51.418-.844.964-1.002 1.641-.077.313-.117.574-.117.776v1.91c0 .835.256 1.537.764 2.112.51.573 1.176.86 1.994.86.959 0 1.708-.369 2.238-1.107.537-.738.805-1.715.805-2.926zm2.594-.094c0 1.95-.527 3.49-1.581 4.623-.945 1.007-2.116 1.508-3.513 1.508-1.51 0-2.594-.541-3.255-1.628h-.046v6.037h-2.547V28.873c0-1.225-.031-2.481-.094-3.773h2.238l.144 1.816h.047c.848-1.368 2.138-2.053 3.866-2.053 1.35 0 2.481.537 3.384 1.604.903 1.07 1.357 2.479 1.357 4.221z" fill="#FEFEFE"/><path fill-rule="evenodd" clip-rule="evenodd" d="M104.074 32.105c0 1.35-.467 2.45-1.41 3.299-1.035.929-2.477 1.392-4.327 1.392-1.712 0-3.083-.331-4.12-.992l.59-2.121c1.117.677 2.344 1.016 3.68 1.016.957 0 1.705-.219 2.241-.652.534-.43.8-1.011.8-1.735 0-.647-.219-1.19-.659-1.63-.439-.44-1.171-.852-2.194-1.23-2.781-1.037-4.171-2.558-4.171-4.555 0-1.307.486-2.38 1.462-3.214.972-.833 2.27-1.251 3.89-1.251 1.446 0 2.648.251 3.605.752l-.635 2.076c-.896-.486-1.91-.728-3.041-.728-.895 0-1.596.218-2.1.658-.421.393-.635.872-.635 1.44 0 .627.243 1.147.73 1.553.425.381 1.194.786 2.313 1.228 1.367.55 2.371 1.195 3.017 1.933.642.741.964 1.66.964 2.761z" fill="#FEFEFE"/><path fill-rule="evenodd" clip-rule="evenodd" d="M112.493 27.01h-2.805v5.564c0 1.416.493 2.123 1.483 2.123.457 0 .835-.04 1.134-.117l.068 1.933c-.501.185-1.162.282-1.98.282-1.004 0-1.789-.308-2.358-.92-.565-.614-.849-1.644-.849-3.09V27.01h-1.672V25.1h1.672V23l2.502-.752V25.1h2.805v1.91z" fill="#FEFEFE"/><path fill-rule="evenodd" clip-rule="evenodd" d="M122.512 30.818c0-1.056-.226-1.964-.682-2.718-.536-.918-1.298-1.374-2.288-1.374-1.023 0-1.799.456-2.333 1.374-.456.754-.684 1.676-.684 2.767 0 1.056.228 1.959.684 2.716.55.915 1.322 1.373 2.312 1.373.973 0 1.735-.466 2.286-1.396.47-.772.705-1.689.705-2.742zm2.643-.082c0 1.761-.503 3.205-1.51 4.339-1.053 1.164-2.455 1.745-4.197 1.745-1.684 0-3.022-.56-4.019-1.675-.999-1.117-1.495-2.523-1.495-4.221 0-1.775.51-3.231 1.542-4.362 1.028-1.131 2.415-1.698 4.16-1.698 1.681 0 3.034.558 4.057 1.676.975 1.085 1.462 2.482 1.462 4.196z" fill="#FEFEFE"/><path fill-rule="evenodd" clip-rule="evenodd" d="M133.432 27.338c-.252-.047-.522-.07-.805-.07-.896 0-1.587.339-2.076 1.014-.421.597-.635 1.354-.635 2.264v6.013h-2.544l.023-7.852c0-1.319-.033-2.523-.096-3.607h2.217l.094 2.191h.069c.27-.752.693-1.359 1.274-1.815.569-.409 1.181-.614 1.841-.614.236 0 .447.017.638.05v2.426z" fill="#FEFEFE"/><path fill-rule="evenodd" clip-rule="evenodd" d="M142.391 29.626c.016-.753-.149-1.406-.494-1.956-.44-.708-1.12-1.061-2.03-1.061-.834 0-1.509.343-2.029 1.037-.421.553-.675 1.211-.753 1.98h5.306zm2.426.661c0 .456-.028.842-.091 1.155h-7.641c.031 1.133.4 1.996 1.11 2.596.642.534 1.477.799 2.498.799 1.131 0 2.161-.179 3.09-.543l.399 1.768c-1.084.473-2.365.708-3.842.708-1.778 0-3.172-.522-4.186-1.568-1.013-1.044-1.521-2.448-1.521-4.207 0-1.729.47-3.17 1.415-4.315.99-1.225 2.326-1.84 4.007-1.84 1.651 0 2.902.615 3.751 1.84.675.973 1.011 2.177 1.011 3.607z" fill="#FEFEFE"/><path fill-rule="evenodd" clip-rule="evenodd" d="M56.194 10.924c0-.912-.242-1.611-.724-2.097-.483-.487-1.186-.729-2.114-.729-.396 0-.732.028-1.009.082v5.837c.155.023.437.035.849.035.957 0 1.693-.266 2.214-.8.523-.532.784-1.307.784-2.328zm1.321-.034c0 1.406-.421 2.464-1.265 3.174-.78.656-1.886.986-3.322.986-.711 0-1.322-.034-1.832-.092V7.275c.665-.108 1.382-.16 2.156-.16 1.366 0 2.398.297 3.092.891.781.671 1.171 1.632 1.171 2.884z" fill="#FEFEFE"/><path fill-rule="evenodd" clip-rule="evenodd" d="M63.212 12.157c0-.52-.11-.964-.336-1.334-.261-.451-.636-.674-1.122-.674-.504 0-.884.223-1.148.674-.223.37-.336.823-.336 1.357 0 .52.113.964.336 1.336.271.451.649.674 1.136.674.478 0 .851-.227 1.124-.686.231-.378.346-.828.346-1.347zm1.3-.041c0 .866-.249 1.576-.742 2.134-.518.57-1.205.855-2.063.855-.825 0-1.484-.273-1.975-.823-.489-.548-.734-1.239-.734-2.074 0-.872.249-1.585.757-2.142.505-.556 1.188-.833 2.044-.833.828 0 1.491.273 1.994.821.477.534.719 1.22.719 2.062z" fill="#FEFEFE"/><path fill-rule="evenodd" clip-rule="evenodd" d="M73.891 9.349L72.13 14.98h-1.145l-.731-2.447c-.186-.607-.334-1.213-.452-1.818h-.021c-.111.618-.259 1.225-.451 1.818l-.779 2.447h-1.159l-1.656-5.631h1.287l.637 2.676c.153.632.282 1.235.383 1.805h.021c.094-.47.247-1.07.466-1.793l.8-2.688h1.015l.767 2.629c.183.642.336 1.258.452 1.852h.032c.087-.578.214-1.196.386-1.852l.682-2.629h1.227z" fill="#FEFEFE"/><path fill-rule="evenodd" clip-rule="evenodd" d="M80.379 14.98h-1.251v-3.224c0-.995-.376-1.491-1.136-1.491-.369 0-.67.137-.901.41-.232.272-.35.595-.35.964v3.341H75.49v-4.021c0-.494-.014-1.029-.045-1.611h1.101l.059.88h.033c.148-.273.362-.496.651-.68.336-.207.715-.313 1.133-.313.528 0 .962.17 1.31.508.43.417.647 1.04.647 1.865v3.372z" fill="#FEFEFE"/><path fill-rule="evenodd" clip-rule="evenodd" d="M82.583 14.98h1.248V6.766h-1.248v8.214z" fill="#FEFEFE"/><path fill-rule="evenodd" clip-rule="evenodd" d="M89.9 12.157c0-.52-.113-.964-.337-1.334-.261-.451-.635-.674-1.121-.674-.504 0-.887.223-1.146.674-.226.37-.338.823-.338 1.357 0 .52.112.964.338 1.336.268.451.647.674 1.134.674.477 0 .851-.227 1.124-.686.23-.378.346-.828.346-1.347zm1.3-.041c0 .866-.25 1.576-.743 2.134-.517.57-1.204.855-2.063.855-.827 0-1.484-.273-1.972-.823-.492-.548-.736-1.239-.736-2.074 0-.872.249-1.585.757-2.142.505-.556 1.187-.833 2.043-.833.828 0 1.491.273 1.994.821.478.534.72 1.22.72 2.062z" fill="#FEFEFE"/><path fill-rule="evenodd" clip-rule="evenodd" d="M95.958 13.043v-.868c-1.38-.023-2.072.355-2.072 1.133 0 .294.078.515.242.664.16.145.365.218.609.218.276 0 .532-.087.767-.26.233-.175.379-.396.433-.666.013-.064.021-.137.021-.221zm1.3 1.935h-1.126l-.094-.648h-.033c-.385.517-.934.775-1.646.775-.532 0-.959-.169-1.286-.51-.294-.308-.44-.691-.44-1.145 0-.69.287-1.214.863-1.576.576-.362 1.387-.543 2.429-.534v-.105c0-.741-.39-1.11-1.169-1.11-.555 0-1.044.138-1.467.418l-.254-.823c.522-.327 1.169-.487 1.931-.487 1.472 0 2.21.777 2.21 2.328v2.075c0 .561.026 1.011.082 1.342z" fill="#FEFEFE"/><path fill-rule="evenodd" clip-rule="evenodd" d="M103.072 12.606v-.938c0-.165-.012-.294-.038-.395-.068-.301-.219-.555-.451-.76-.233-.204-.513-.308-.835-.308-.468 0-.835.188-1.103.557-.266.372-.4.847-.4 1.425 0 .558.127 1.009.383 1.355.271.371.635.558 1.096.558.409 0 .739-.156.988-.464.24-.286.36-.63.36-1.03zm1.295 2.374h-1.11l-.058-.905h-.036c-.352.687-.957 1.03-1.806 1.03-.682 0-1.244-.265-1.69-.797-.449-.534-.673-1.225-.673-2.074 0-.912.242-1.649.729-2.213.47-.524 1.049-.788 1.738-.788.757 0 1.284.257 1.585.767h.026V6.767h1.251v6.694c0 .551.014 1.054.044 1.519z" fill="#FEFEFE"/><path fill-rule="evenodd" clip-rule="evenodd" d="M113.777 12.157c0-.52-.113-.964-.338-1.334-.261-.451-.635-.674-1.122-.674-.503 0-.884.223-1.148.674-.223.37-.336.823-.336 1.357 0 .52.113.964.336 1.336.271.451.647.674 1.136.674.478 0 .851-.227 1.124-.686.231-.378.348-.828.348-1.347zm1.296-.041c0 .866-.247 1.576-.743 2.134-.515.57-1.202.855-2.062.855-.823 0-1.482-.273-1.973-.823-.489-.548-.736-1.239-.736-2.074 0-.872.251-1.585.757-2.142.508-.556 1.187-.833 2.046-.833.827 0 1.491.273 1.991.821.48.534.72 1.22.72 2.062z" fill="#FEFEFE"/><path fill-rule="evenodd" clip-rule="evenodd" d="M121.803 14.98h-1.251v-3.224c0-.995-.376-1.491-1.136-1.491-.371 0-.672.137-.903.41-.23.272-.348.595-.348.964v3.341h-1.251v-4.021c0-.494-.014-1.029-.047-1.611h1.101l.059.88h.032c.149-.273.365-.496.652-.68.338-.207.717-.313 1.133-.313.527 0 .962.17 1.31.508.433.417.649 1.04.649 1.865v3.372z" fill="#FEFEFE"/><path fill-rule="evenodd" clip-rule="evenodd" d="M130.223 10.288h-1.378v2.732c0 .697.247 1.042.732 1.042.221 0 .407-.016.557-.056l.033.95c-.249.092-.574.139-.973.139-.494 0-.88-.153-1.16-.452-.277-.301-.414-.807-.414-1.517v-2.838h-.825V9.35h.825V8.317l1.225-.369V9.35h1.378v.938z" fill="#FEFEFE"/><path fill-rule="evenodd" clip-rule="evenodd" d="M136.852 14.98h-1.254v-3.2c0-1.012-.376-1.515-1.133-1.515-.581 0-.978.291-1.192.877-.04.125-.061.273-.061.451v3.387h-1.249V6.766h1.249v3.393h.023c.395-.619.96-.924 1.693-.924.515 0 .946.169 1.286.508.424.425.638 1.056.638 1.888v3.349z" fill="#FEFEFE"/><path fill-rule="evenodd" clip-rule="evenodd" d="M142.491 11.575c.01-.372-.073-.694-.244-.962-.214-.348-.548-.523-.995-.523-.407 0-.743.17-.995.511-.209.271-.334.595-.371.974h2.605zm1.195.324c0 .221-.017.411-.05.566h-3.75c.014.555.195.981.543 1.275.317.261.729.393 1.23.393.555 0 1.06-.087 1.516-.266l.198.87c-.536.23-1.162.346-1.891.346-.872 0-1.559-.257-2.055-.769-.498-.515-.745-1.204-.745-2.07 0-.848.23-1.554.696-2.118.484-.602 1.138-.903 1.968-.903.807 0 1.423.301 1.839.903.334.479.501 1.07.501 1.773z" fill="#FEFEFE"/></svg>