<?xml version="1.0" encoding="UTF-8"?>
<svg width="800" height="800" version="1.1" viewBox="0 0 211.67 211.67" xmlns="http://www.w3.org/2000/svg">
 <defs>
  <linearGradient id="c" x1="120.39" x2="39.835" y1="90.752" y2="171.3" gradientUnits="userSpaceOnUse">
   <stop offset="0"/>
   <stop stop-opacity="0" offset="1"/>
  </linearGradient>
  <mask id="b" maskUnits="userSpaceOnUse">
   <circle cx="105.83" cy="105.83" r="105.83" fill="#fff" stroke-width=".26458"/>
  </mask>
  <mask id="a" maskUnits="userSpaceOnUse">
   <circle cx="105.83" cy="105.83" r="105.83" fill="#fff" stroke-width=".26458"/>
  </mask>
 </defs>
 <circle cx="105.83" cy="105.83" r="105.83" fill="#1c8adb" stroke-width=".26458"/>
 <path d="m114.04 84.182h-1e-3l-4.7612-1.0988v-5.16e-4l0.0686-0.06806-9.2657-2.0542-5.368-1.239 5.16e-4 -5.15e-4 -9.1942-2.1213 5.14e-4 5.16e-4h-5.14e-4v-5.16e-4l-12.572-2.9008h-9.98e-4c-1.074-0.24785-2.8414-0.68796-3.9259-0.53211h-5.16e-4c-0.48731 0.07014-0.963 0.20652-1.4133 0.40527l-9.98e-4 5.16e-4c-1.0024 0.44291-2.2682 1.753-3.0473 2.5322l-61.494 61.494c11.608 30.569 28.644 57.825 69.411 70.602l62.089-62.089c0.77926-0.77925 2.0902-2.0455 2.5332-3.0483 0.19856-0.44999 0.33542-0.9259 0.40526-1.4138 0.15565-1.0846-0.28469-2.8528-0.53313-3.9264l-2.9003-12.573-2.1212-9.1933-1.2395-5.3675-2.1231-9.198-1.0982-4.7622z" fill="url(#c)" mask="url(#a)" opacity=".42" style="paint-order:stroke fill markers"/>
 <path d="m147.56 64.11c-0.5111-0.5111-1.0709-0.9733-1.5457-1.2526-2.4404-1.4358-5.4846-1.4358-7.925 1e-6 -0.94945 0.55863-2.2102 1.855-2.9912 2.636l-17.481 17.481a3.6085 3.6085 0 0 1-3.3632 0.96468l-4.773-1.1013 0.0687-0.0687c1.2439-1.2439 1.2435-3.2466-3.6e-4 -4.4905l-1.1817-1.1817c-1.2439-1.2439-3.2466-1.2443-4.4905-3.66e-4l-3.6139 3.6139-5.3803-1.2417c1.1577-1.2487 1.1299-3.187-0.08477-4.4017l-1.1817-1.1817c-1.2439-1.2439-3.2466-1.2435-4.4905 3.65e-4l-3.4568 3.4568-12.6-2.9076c-1.0763-0.24837-2.8483-0.68979-3.9354-0.53349-0.48861 0.07026-0.96548 0.20694-1.4171 0.40634-1.0047 0.44363-2.2738 1.7571-3.0548 2.5381l-2.4358 2.4358a1.4704 1.4704 0 0 0 0.35774 2.3426l35.23 18.454a1.4704 1.4704 0 0 1 0.35737 2.3423l-17.482 17.482a4 4 0 0 1-3.3939 1.1313l-8.9649-1.2804a4 4 0 0 0-3.3939 1.1313l-2.7106 2.7106a1.5086 1.5086 0 0 0 0.33398 2.3854l13.121 7.2895a7 7 0 0 1 2.7194 2.7194l7.2895 13.121a1.5086 1.5086 0 0 0 2.3854 0.33398l2.7106-2.7106a4 4 0 0 0 1.1313-3.3939l-1.2804-8.9649a4 4 0 0 1 1.1313-3.3939l17.482-17.482a1.4704 1.4704 0 0 1 2.3423 0.35737l18.454 35.23a1.4704 1.4704 0 0 0 2.3426 0.35774l2.4358-2.4358c0.78105-0.78105 2.0945-2.0501 2.5381-3.0548 0.19939-0.45157 0.33608-0.92845 0.40633-1.417 0.1563-1.0871-0.28512-2.8592-0.53349-3.9354l-2.9076-12.6 3.4568-3.4568c1.2439-1.2439 1.2443-3.2466 3.7e-4 -4.4905l-1.1817-1.1817c-1.2147-1.2147-3.153-1.2425-4.4017-0.0848l-1.2417-5.3803 3.6139-3.6139c1.2439-1.2439 1.2436-3.2466-3.6e-4 -4.4905l-1.1817-1.1817c-1.2439-1.2439-3.2466-1.2443-4.4905-3.6e-4l-0.0687 0.0687-1.1013-4.773a3.6085 3.6085 0 0 1 0.96468-3.3632l17.481-17.481c0.78105-0.78105 2.0774-2.0418 2.636-2.9912 1.4358-2.4404 1.4358-5.4846 0-7.925-0.27932-0.47473-0.74151-1.0346-1.2526-1.5457z" fill="#fff" mask="url(#b)" style="paint-order:stroke fill markers"/>
</svg>
